<svg width="307" height="307" viewBox="0 0 307 307" fill="none" xmlns="http://www.w3.org/2000/svg">
<rect x="1.5625" y="1.5625" width="303.125" height="303.125" rx="151.562" fill="black" stroke="url(#paint0_linear_10_8)" stroke-width="3.125"/>
<path fill-rule="evenodd" clip-rule="evenodd" d="M147.305 35.4037C143.946 36.5655 139.773 38.9117 137.167 41.1042C135.942 42.1344 73.1369 124.674 67.5121 132.645C67.448 132.737 59.0985 134.032 48.9577 135.524C38.8174 137.017 30.8557 138.434 31.2651 138.675C39.239 143.347 51.8094 151.421 51.8094 151.869C51.8094 152.195 47.7476 155.664 42.7831 159.578C37.8187 163.493 33.5688 166.863 33.3388 167.068C33.1088 167.273 36.1224 169.39 40.0357 171.772C43.949 174.155 48.546 176.988 50.251 178.068L53.3514 180.031L43.6363 187.701L33.9217 195.369L35.2955 196.379C36.0507 196.933 64.0268 214.147 97.464 234.631L158.26 271.875L161.812 269.473C182.361 255.582 277.357 190.693 277.934 190.153C278.545 189.582 276.62 188.203 268.164 183.153C262.372 179.694 257.499 176.648 257.336 176.385C257.049 175.92 258.324 174.983 271.812 165.747L278.096 161.443L267.489 155.114C261.654 151.634 256.804 148.523 256.708 148.203C256.613 147.883 261.113 144.527 266.709 140.745C272.304 136.963 276.878 133.688 276.871 133.466C276.866 133.244 273.266 130.551 268.872 127.481C262.529 123.048 260.8 121.549 260.476 120.201C260.252 119.268 259.626 116.538 259.085 114.136C254.797 95.0839 243.26 76.6687 232.216 71.2454C229.414 69.8693 228.095 69.5875 224.46 69.5875C217.656 69.5875 213.841 71.7421 202.032 82.2533C198.665 85.2506 196.487 86.7664 195.549 86.7664C192.731 86.7664 191.958 85.4597 180.336 61.0592C171.174 41.8252 163.638 34.3177 153.551 34.3753C151.721 34.3858 148.911 34.8482 147.305 35.4037ZM157.246 37.9194C158.669 38.2776 159.833 38.7714 159.833 39.0171C159.833 39.2623 159.149 39.9116 158.312 40.4596C155.649 42.2048 147.597 50.205 143.984 54.696C139.811 59.8834 133.637 69.0442 130.131 75.2496C127.772 79.4267 127.484 79.7172 126.096 79.3277C125.274 79.0976 121.784 78.9212 118.341 78.9369C114.899 78.952 112.086 78.8204 112.092 78.6434C112.098 78.467 118.059 70.4703 125.34 60.8734C137.19 45.2522 138.944 43.1954 142.079 41.2428C145.436 39.1517 150.472 37.3872 153.315 37.3062C154.054 37.2853 155.823 37.5607 157.246 37.9194ZM165.767 42.9683C168.231 45.6954 170.972 49.6518 173.515 54.1503L175.453 57.5791L170.902 64.4571C164.465 74.1845 157.062 88.1844 154.407 95.65C154.112 96.481 153.131 95.7729 149.165 91.8648C144.072 86.8462 140.079 84.1203 134.386 81.7758C132.423 80.9675 131.088 80.0771 131.199 79.652C131.304 79.2496 133.102 76.08 135.193 72.6081C142.701 60.1478 151.712 49.2791 159.196 43.6572C161.308 42.0709 163.202 40.7706 163.405 40.7676C163.608 40.7641 164.671 41.7547 165.767 42.9683ZM181.966 71.5616C184.453 77.0006 187.289 82.6382 188.268 84.09L190.05 86.7292L186.913 89.9937C180.389 96.7838 176.44 108.084 174.703 124.932C174.176 130.045 173.545 135.013 173.299 135.974L172.853 137.721L171.088 134.976C169.259 132.133 167.459 127.444 164.804 118.601C163.954 115.772 161.67 110.325 159.727 106.498L156.196 99.5388L157.226 96.7925C161.361 85.7689 175.81 60.0383 177.125 61.3538C177.301 61.5297 179.479 66.1232 181.966 71.5616ZM217.36 77.8252C206.416 91.3832 199.624 109.361 197.562 130.227L196.864 137.292L193.635 139.057C189.115 141.528 184.138 142.86 180.669 142.527C175.965 142.075 176.002 142.216 177.285 129.742C177.9 123.759 178.696 117.212 179.054 115.19C180.796 105.341 184.746 96.4297 189.404 91.8427C191.976 89.3089 192.323 89.1424 194.02 89.6292C196.702 90.3985 199.253 88.9088 206.42 82.3861C210.373 78.789 213.956 76.1068 216.556 74.7994C218.768 73.6877 220.684 72.8847 220.815 73.0151C220.945 73.1456 219.39 75.3101 217.36 77.8252ZM231.265 74.2019C234.878 75.8843 240.329 81.1906 243.876 86.477L246.467 90.3385L242.287 94.5214C234.278 102.537 228.929 110.758 226.199 119.25L224.57 124.314L220.882 125.057C216.764 125.887 210.307 128.772 204.833 132.229C202.838 133.488 200.991 134.518 200.727 134.518C200.047 134.518 200.949 126.016 202.394 118.795C205.817 101.696 212.693 87.1572 222.431 76.43C226.174 72.3064 226.835 72.1393 231.265 74.2019ZM125.475 82.8048C125.475 83.5251 117.749 98.1837 111.023 110.224C108.084 115.485 106.981 116.993 106.288 116.696C105.791 116.483 100.573 116.148 94.6915 115.95L83.9986 115.592L96.0885 99.5778C102.738 90.77 108.267 83.457 108.376 83.3271C109.365 82.1485 125.475 81.6564 125.475 82.8048ZM136.375 86.2377C139.894 87.9387 142.441 89.7637 145.999 93.1308C152.833 99.6 152.756 99.3746 150.524 106.337C147.255 116.538 145.364 125.704 142.964 142.99C141.673 152.294 140.616 160.143 140.616 160.431C140.616 162.519 139.037 158.199 136.252 148.494C132.388 135.031 129.935 129.711 125.494 125.173C121.954 121.555 119.301 119.985 114.248 118.516C111.074 117.594 110.303 116.788 111.422 115.563C111.881 115.059 118.193 103.544 126.021 88.9275C129.529 82.3762 128.787 82.5689 136.375 86.2377ZM250.103 97.2642C253.136 103.272 255.632 111.555 257.33 121.244C257.675 123.211 258.323 123.828 264.669 128.232C268.498 130.888 271.633 133.222 271.636 133.417C271.645 133.985 249.068 149.23 248.566 148.997C248.317 148.88 247.408 146.747 246.545 144.256C244.618 138.689 241.888 134.097 238.484 130.692C235.818 128.026 230.914 125.201 228.952 125.201C227.98 125.201 227.888 124.921 228.242 123.017C228.901 119.462 231.969 112.651 235.01 107.994C237.725 103.834 246.805 93.7545 247.837 93.7545C248.109 93.7545 249.128 95.3338 250.103 97.2642ZM158.386 110.351C159.435 112.593 161.4 117.965 162.752 122.289C165.493 131.053 168.202 136.891 171.011 140.091L172.885 142.226L171.883 151.191C171.331 156.122 170.58 162.084 170.214 164.44L169.547 168.725L164.159 170.547C154.942 173.665 148.372 172.907 144.474 168.274C143.633 167.275 142.945 166.185 142.945 165.852C142.945 164.064 148.888 124.162 149.66 120.766C150.591 116.675 153.026 108.273 154.089 105.49C154.669 103.97 154.693 103.964 155.579 105.11C156.073 105.751 157.337 108.109 158.386 110.351ZM104.627 119.843C105.04 120.256 103.749 122.595 100.492 127.336C97.8868 131.126 95.0356 135.092 94.1552 136.149L92.5549 138.071L86.4491 136.041C83.0913 134.925 78.4181 133.751 76.0649 133.431C73.7111 133.112 71.6729 132.738 71.5349 132.6C70.9735 132.038 81.0473 119.687 82.4077 119.269C84.5047 118.624 103.909 119.125 104.627 119.843ZM116.699 122.648C125.259 126.491 128.473 131.813 133.688 150.782C134.971 155.449 136.808 160.988 137.772 163.09L139.524 166.913L138.597 172.408C137.103 181.269 134.084 197.686 133.912 197.88C133.537 198.307 127.235 193.81 125.749 192.057C123.157 188.999 120.513 182.628 118.183 173.826C115.403 163.327 113.559 158.254 111.15 154.483C108.633 150.544 103.255 145.19 98.7213 142.111C96.2335 140.422 95.2884 139.459 95.6541 138.986C95.9447 138.611 97.5001 136.6 99.1103 134.518C100.72 132.436 103.527 128.419 105.345 125.592L108.653 120.451L111.095 120.84C112.438 121.053 114.96 121.867 116.699 122.648ZM223.89 128.924C223.89 129.371 223.634 132.319 223.32 135.475C223.006 138.632 222.479 146.587 222.149 153.153C221.818 159.719 221.336 165.877 221.079 166.838C220.706 168.229 219.084 169.623 213.121 173.68C209.001 176.483 205.45 178.776 205.229 178.776C205.008 178.776 204.175 177.793 203.378 176.592C202.581 175.391 201.122 173.621 200.135 172.659C198.346 170.916 198.342 170.897 198.848 166.836C199.127 164.595 199.542 157.34 199.769 150.715L200.184 138.668L205.777 135.203C212.496 131.039 213.297 130.62 217.124 129.258C220.81 127.946 223.89 127.794 223.89 128.924ZM231.751 129.485C237.149 132.011 241.553 138.249 244.283 147.237C245.534 151.353 245.539 151.494 244.484 152.28C240.683 155.109 224.997 165.515 224.819 165.324C224.364 164.832 226.621 130.424 227.21 128.892C227.623 127.814 228.391 127.914 231.751 129.485ZM77.7234 136.959C81.5126 137.593 89.1558 139.921 89.8662 140.657C90.3362 141.144 84.4459 146.547 79.6992 149.981C76.4399 152.339 70.4086 155.469 67.5138 156.303C66.6607 156.55 62.84 154.516 53.8289 149.021C46.9533 144.827 40.9971 141.082 40.5941 140.697C40.02 140.15 42.8653 139.548 53.6967 137.925C67.6548 135.834 70.3504 135.725 77.7234 136.959ZM196.344 153.59C196.154 160.555 195.833 166.806 195.631 167.479L195.265 168.704L191.946 167.364C187.327 165.498 181.999 165.058 177.306 166.155C175.226 166.641 173.415 166.929 173.282 166.796C173.149 166.662 173.471 163.472 173.998 159.708C174.526 155.942 175.131 150.949 175.343 148.611C175.668 145.023 175.874 144.42 176.661 144.743C180.017 146.123 181.637 146.224 185.664 145.304C187.952 144.781 191.264 143.594 193.026 142.666C194.788 141.738 196.333 140.966 196.46 140.951C196.586 140.936 196.534 146.623 196.344 153.59ZM103.116 149.95C109.655 156.416 111.109 159.245 114.662 172.42C116.095 177.733 117.829 183.581 118.516 185.417C119.203 187.253 119.673 188.848 119.561 188.961C119.412 189.11 77.0694 163.379 70.8512 159.36C70.3277 159.022 71.4067 158.209 74.3452 156.728C79.4785 154.142 84.1122 150.77 89.2886 145.857L93.1553 142.187L95.4846 143.448C96.7658 144.142 100.2 147.067 103.116 149.95ZM262.888 155.87C270.429 160.389 272.131 161.639 271.524 162.212C269.586 164.042 158.266 239.566 157.463 239.595C156.447 239.634 38.7068 167.708 38.7068 167.05C38.7068 166.215 55.1357 153.658 55.863 153.937C56.2753 154.095 78.9783 167.928 106.314 184.678C133.649 201.426 156.415 215.126 156.904 215.121C157.632 215.113 197.285 188.307 243.981 156.256C248.785 152.958 252.891 150.256 253.106 150.25C253.32 150.245 257.722 152.774 262.888 155.87ZM189.902 169.793C191.46 170.297 193.255 171.092 193.89 171.558C195.04 172.403 195.04 172.427 193.792 177.251C192.383 182.706 189.409 189.222 187.56 190.91C186.883 191.528 179.737 196.52 171.68 202.004C162.042 208.565 156.714 211.853 156.103 211.618C155.592 211.422 155.174 211.136 155.174 210.981C155.174 210.826 156.429 209.292 157.961 207.573C163.354 201.522 168.085 190.404 171.005 176.917L172.353 170.692L175.265 169.831C179.187 168.671 186.379 168.652 189.902 169.793ZM144.932 172.592C149.773 176.287 155.607 176.65 164.045 173.78C166.324 173.004 168.305 172.37 168.445 172.37C168.956 172.37 167.848 177.925 166.168 183.785C163.987 191.392 161.703 196.935 158.96 201.275C156.78 204.723 152.991 209.057 152.155 209.057C151.907 209.057 150.322 208.191 148.634 207.133C146.946 206.074 143.569 203.98 141.129 202.48L136.693 199.753L138.012 193.195C138.738 189.588 139.942 183.034 140.689 178.63C141.435 174.226 142.115 170.623 142.2 170.623C142.284 170.623 143.513 171.509 144.932 172.592ZM200.635 177.757C201.575 179.053 202.343 180.332 202.343 180.598C202.343 181.079 194.679 186.446 194.396 186.163C193.978 185.745 197.916 174.774 198.381 175.061C198.681 175.246 199.695 176.459 200.635 177.757ZM263.302 183.724C268.369 186.766 272.515 189.502 272.515 189.803C272.515 190.422 160.072 267.321 158.583 267.72C157.684 267.962 39.7305 196.163 39.4615 195.211C39.3957 194.979 43.1215 191.833 47.7406 188.218L56.139 181.646L106.543 212.53C134.264 229.517 157.189 243.415 157.487 243.415C157.784 243.415 179.463 228.759 205.663 210.847C231.862 192.935 253.476 178.26 253.693 178.236C253.911 178.213 258.234 180.682 263.302 183.724Z" fill="url(#paint1_linear_10_8)"/>
<defs>
<linearGradient id="paint0_linear_10_8" x1="153.125" y1="3.125" x2="153.125" y2="303.125" gradientUnits="userSpaceOnUse">
<stop offset="0.302885" stop-color="white" stop-opacity="0.7"/>
<stop offset="1" stop-color="#1D1D1D" stop-opacity="0.5"/>
</linearGradient>
<linearGradient id="paint1_linear_10_8" x1="154.673" y1="34.375" x2="154.673" y2="271.875" gradientUnits="userSpaceOnUse">
<stop offset="0.360977" stop-color="white"/>
<stop offset="0.879808" stop-color="#4C4C4C" stop-opacity="0.5"/>
</linearGradient>
</defs>
</svg>
