<svg width="191" height="191" viewBox="0 0 191 191" fill="none" xmlns="http://www.w3.org/2000/svg">
<circle cx="95.5" cy="95.5" r="94" fill="black" stroke="white" stroke-width="3"/>
<path d="M92.1561 174.551C95.081 172.498 98.2426 172.499 101.172 174.555C103.928 176.489 106.215 182.803 105.257 185.831C104.103 189.472 102.566 188.252 102.566 183.697C102.566 178.998 99.7262 175.09 96.3104 175.09C93.758 175.09 90.212 178.932 88.1063 183.981C87.185 186.191 85.9205 188 85.2977 188C82.7304 187.997 88.1544 177.359 92.1561 174.551ZM82.7137 166.458C85.6915 160.689 93.2001 158.441 99.1307 161.546C103.377 163.769 107.51 168.511 109.996 174.014C112.29 179.091 112.994 186.925 111.157 186.925C110.567 186.924 110.072 185.35 110.059 183.428C110.006 175.449 101.95 163.843 95.6444 162.657C87.56 161.139 83.6134 166.003 82.5321 178.823C81.9093 186.202 81.3206 187.873 79.8602 186.41C78.8529 185.395 81.1182 169.549 82.7137 166.458ZM66.2782 159.773C74.4704 144.374 89.5023 138.394 106.609 143.729C114.413 146.161 123.861 152.297 128.919 158.218C134.404 164.637 140.066 177.133 137.467 177.077C136.876 177.063 135.534 174.865 134.486 172.191C129.732 160.066 118.774 149.973 106.109 146.054C97.6553 143.437 92.9933 143.34 85.3124 145.623C78.2274 147.729 71.621 154.128 66.0565 164.276C62.2401 171.237 59.062 173.602 50.7538 175.665C45.5572 176.956 47.4578 174.098 52.7372 172.684C58.7302 171.077 61.8432 168.109 66.2782 159.773ZM122.419 132.593C124.39 120.643 130.065 120.412 152.712 131.36C160.919 135.328 169.424 138.865 171.611 139.222C173.946 139.602 175.587 140.476 175.588 141.341C175.588 142.151 175.434 142.814 175.246 142.814C172.634 142.813 160.626 138.021 150.535 132.952C136.131 125.719 128.243 123.884 126.426 127.346C125.843 128.456 125.013 131.544 124.58 134.207C122.953 144.222 120.147 145.148 111.063 138.666C103.501 133.27 98.2701 131.596 91.9628 132.555C89.2306 132.97 81.9154 133.681 75.7069 134.136C58.2124 135.418 55.8871 137.363 53.2401 152.925C51.813 161.318 49.299 166.892 45.2206 170.705C43.1032 172.686 42.4315 172.911 42.4315 171.644C42.4318 170.725 43.1924 169.342 44.121 168.569C47.1062 166.088 49.6705 159.72 51.409 150.475C52.3411 145.517 53.8491 140.323 54.7586 138.932C57.0191 135.475 61.964 133.101 67.993 132.579C70.7667 132.339 78.6227 131.571 85.4501 130.872C99.9666 129.386 103.066 130.042 112.138 136.515C120.459 142.452 120.813 142.317 122.419 132.593ZM135.802 132.006C136.126 131.979 143.96 135.731 153.209 140.344C162.456 144.956 170.066 149.093 170.122 149.538C170.37 151.612 165.472 149.723 151.395 142.315C143.004 137.897 135.831 134.589 135.459 134.962C133.319 137.107 135.214 142.182 141.078 150.009C147.39 158.434 149.972 162.773 151.363 167.29C152.729 171.727 149.967 169.828 147.75 164.806C146.559 162.108 142.671 156.027 139.109 151.292C133.879 144.337 132.634 141.908 132.634 138.659C132.634 135.116 134.044 132.154 135.802 132.006ZM48.5458 116.622C55.8381 110.421 65.703 110.481 82.2977 116.825C98.2558 122.925 102.49 123.333 111.671 119.652C128.486 112.913 139.705 112.084 156.465 116.344C168.621 119.434 181.125 124.481 181.821 126.578C182.195 127.704 181.803 127.871 180.298 127.225C151.241 114.75 134.918 113.123 115.453 120.761C102.817 125.719 98.449 125.524 82.0731 119.267C68.3867 114.037 63.655 113.171 57.6278 114.797C51.5985 116.424 44.8774 122.568 43.6229 127.599C43.086 129.754 42.3509 135.789 41.9901 141.009C41.247 151.739 39.5084 156.034 34.9501 158.396C31.3595 160.255 27.3988 160.547 27.3983 158.952C27.3985 158.361 28.1468 157.876 29.0624 157.876C32.2388 157.876 36.7661 154.733 37.9022 151.74C38.5315 150.086 39.3501 144.495 39.7206 139.318C40.6344 126.58 42.5112 121.753 48.5458 116.622ZM17.1249 68.6348C20.5987 68.5983 26.7369 70.0511 34.9598 72.8546C41.8548 75.2053 53.4528 78.3892 60.7313 79.9288C83.9913 84.8487 91.0801 90.8855 83.7899 99.5655C80.4245 103.572 74.3834 105.158 62.494 105.158C49.1704 105.158 41.4506 108.497 37.617 115.917C36.8525 117.396 35.4052 122.722 34.4022 127.752C32.3501 138.032 28.9615 144.779 24.1112 148.24C19.3296 151.652 18.7239 149.727 23.3143 145.708C28.3678 141.283 29.969 137.864 32.2284 126.676C34.361 116.114 35.0678 114.477 39.5262 109.755C43.9396 105.083 50.3325 103.278 64.5272 102.694C77.1928 102.176 80.0539 101.288 82.8534 97.0079C86.9962 90.6722 80.278 86.384 59.4794 82.087C52.1708 80.5775 41.467 77.65 35.6942 75.5811C21.5266 70.5044 15.2445 69.8306 8.78013 72.6944C4.99125 74.3735 3.77359 74.564 3.7733 73.4757C3.77387 71.3445 11.0741 68.6974 17.1249 68.6348ZM12.7206 83.6456C13.8029 83.6434 18.1123 85.1468 22.2958 86.9864C28.149 89.5608 30.8875 90.1999 34.1678 89.7589C42.551 88.6326 46.2011 92.6207 41.0897 97.3243C39.7612 98.5476 35.2199 101.276 30.9999 103.387C26.7787 105.498 22.2542 108.575 20.9452 110.226C18.7052 113.051 18.6072 113.906 19.2772 124.741C19.8581 134.134 19.6784 136.859 18.2977 139.534C17.3667 141.337 16.1331 142.814 15.5575 142.814C14.1334 142.813 14.2308 142.176 16.2567 138.251C17.7644 135.329 17.8379 133.696 16.7909 126.2C14.8087 111.993 17.093 107.69 30.0829 101.165C37.7928 97.2921 41.3581 94.7593 41.3583 93.1573C41.3573 92.6572 38.4183 92.2481 34.827 92.2481C29.8909 92.2481 26.4692 91.445 20.8221 88.962C12.4596 85.2838 10.8576 85.4261 5.27818 90.3341C1.11935 93.9919 -0.290633 93.9326 2.31334 90.2081C4.4083 87.211 10.054 83.6516 12.7206 83.6456ZM2.70006 110.718C2.70032 107.437 7.89123 108.854 9.28013 112.514C10.4173 115.511 8.60482 125.6 6.92857 125.6C6.4189 125.598 6.29463 122.452 6.65318 118.607C7.27166 111.971 7.18799 111.613 5.00279 111.613C3.73632 111.613 2.70051 111.21 2.70006 110.718ZM103.138 2.19149C103.754 0.772516 104.202 1.68726 104.831 5.6407C105.301 8.59819 107.635 15.1344 110.015 20.1651C115.842 32.4739 118.674 44.0771 118.674 55.6446C118.674 68.0623 116.704 74.0427 109.168 84.4991C102.174 94.2007 99.8536 98.9001 100.814 101.411C101.375 102.875 103.889 102.992 121.071 102.357C141.87 101.588 149.711 102.319 164.849 106.439C175.376 109.303 186.324 113.709 186.326 115.081C186.326 116.287 186.784 116.409 171.829 111.233C155.389 105.542 141.68 103.616 124.677 104.606C105.462 105.722 101.762 105.645 99.8866 104.087C96.351 101.145 98.8243 93.957 106.89 83.7335C114.603 73.9571 115.991 69.7502 115.976 56.2061C115.96 42.4194 114.225 34.9249 107.828 21.0089C103.211 10.9649 101.795 5.28459 103.138 2.19149ZM131.161 11.4395C130.692 9.08947 130.885 8.2821 131.839 8.59578C132.572 8.83839 133.317 11.0306 133.498 13.4659C133.678 15.9028 133.074 20.4321 132.156 23.5294C129.709 31.7864 130.033 37.6311 133.298 44.085C135.483 48.4055 136.306 52.1029 136.99 60.6739C138.224 76.112 139.697 78.2519 150.883 80.8673C159.14 82.7973 161.699 84.5799 168.153 92.9014C173.836 100.228 176.537 101.893 182.772 101.915C185.247 101.924 187.57 102.415 187.936 103.007C188.948 104.648 177.65 104.254 174.514 102.539C173.037 101.732 169.617 98.2392 166.915 94.7774C161.24 87.5083 156.073 83.6409 152.032 83.6407C148.118 83.6404 140.166 79.3864 137.677 75.961C136.128 73.8297 135.414 70.3372 134.808 61.9503C134.25 54.2195 133.34 49.4619 131.852 46.5001C127.087 37.0103 126.852 34.8538 129.436 24.3731C130.843 18.6711 131.549 13.3793 131.161 11.4395ZM137.884 12.8389C138.092 10.3807 140.151 12.649 140.151 15.336C140.151 18.6109 141.497 21.6967 148.018 33.3555L148.337 33.9239C151.567 39.6988 153.027 46.297 152.533 52.8956C151.626 65.029 152.221 65.9824 162.955 69.5606C171.118 72.2825 173.35 74.4051 177.152 83.0665C180.469 90.623 182.67 93.324 185.508 93.3243C186.698 93.3243 187.379 93.8955 187.109 94.669C186.508 96.3922 183.151 95.793 180.529 93.4962C179.409 92.5133 176.896 88.2274 174.946 83.9708C171.093 75.56 169.441 74.0906 160.62 71.2364C157.407 70.197 153.599 68.1646 152.157 66.7198C149.623 64.1813 149.56 63.7476 150.279 53.9268C150.765 47.2931 149.316 40.6608 146.108 34.8341L145.861 34.3848C138.37 20.7765 137.428 18.2322 137.884 12.8389ZM90.7704 2.05477C90.762 1.26548 91.3583 0.82257 92.0946 1.06746C92.8323 1.31415 93.7845 3.94772 94.2108 6.92C94.6382 9.89258 97.5987 18.3253 100.789 25.6583C108.409 43.1679 109.731 49.1123 107.986 58.0011C106.424 65.9548 104.891 69.2126 100.998 72.8575C96.6532 76.9242 91.7344 76.4056 82.7303 70.9327C70.4217 63.4505 68.403 63.2691 51.0223 68.0792C43.3469 70.2038 39.0851 69.4545 25.6356 63.6202C19.6483 61.0226 14.3046 58.8974 13.7606 58.8966C13.218 58.8961 11.8368 58.1354 10.6903 57.2052C8.71281 55.6014 8.78478 55.5444 12.0936 56.1026C14.0114 56.4254 20.6032 58.8809 26.7411 61.5587C39.7761 67.2445 44.9253 67.6908 56.5868 64.1417C67.5729 60.799 74.2131 62.1627 86.0086 70.1827C96.9714 77.6352 105.898 69.4753 105.967 51.9366C105.999 43.7978 103.792 36.6821 97.035 23.1339C94.2936 17.6358 90.8133 5.92554 90.7704 2.05477ZM167.135 42.2198C168.756 36.3345 170.075 37.7991 169.442 44.7843C168.877 51.0206 168.934 51.1848 173.329 55.961C175.781 58.6278 179.226 61.4061 180.983 62.1348C184.28 63.5033 185.283 65.3516 182.728 65.3516C180.73 65.3507 173.197 59.7559 170.403 56.1983C167.126 52.024 165.89 46.7351 167.135 42.2198ZM72.4989 4.02645C73.0894 4.02645 73.573 5.36845 73.5731 7.00887C73.5731 10.4075 76.3336 20.2714 80.5311 31.8614C82.8387 38.2358 83.262 40.8195 82.6854 45.0206C80.8696 58.2484 72.6485 59.5114 55.7635 49.1573C41.4479 40.3787 25.5994 27.6976 28.9413 27.6964C29.2013 27.6981 35.3325 32.0203 42.5653 37.3038C64.1188 53.0444 74.263 56.9625 78.3436 51.1251C80.9798 47.3542 80.498 37.4481 77.2938 29.5577C72.3107 17.2833 69.8209 4.02884 72.4989 4.02645ZM61.7606 7.25496C62.4049 7.25496 62.8348 11.5579 62.8348 18.0128C62.8348 27.3372 62.5483 29.0595 60.6874 30.9239C56.9 34.7184 54.8687 34.0501 38.2665 23.5499C37.4518 23.0356 36.9689 22.0595 37.1942 21.3829C37.436 20.6548 40.5186 22.1111 44.7469 24.9532C58.1279 33.9463 60.9642 32.73 60.6669 18.1212C60.4414 7.0181 60.4179 7.25489 61.7606 7.25496Z" fill="white"/>
</svg>
